<svg xmlns="http://www.w3.org/2000/svg" xmlns:xlink="http://www.w3.org/1999/xlink" version="1.1" class="marks" width="1164" height="1047" viewBox="0 0 1164 1047"><rect width="1164" height="1047" fill="white"/><g fill="none" stroke-miterlimit="10" transform="translate(75,10)"><g class="mark-group role-frame root" role="graphics-object" aria-roledescription="group mark container"><g transform="translate(0,0)"><path class="background" aria-hidden="true" d="M0.5,0.5h1000v1000h-1000Z" stroke="#ddd"/><g><g class="mark-group role-axis" aria-hidden="true"><g transform="translate(0.5,1000.5)"><path class="background" aria-hidden="true" d="M0,0h0v0h0Z" pointer-events="none"/><g><g class="mark-rule role-axis-grid" pointer-events="none"><line transform="translate(13,-1000)" x2="0" y2="1000" stroke="#ddd" stroke-width="1" opacity="1"/><line transform="translate(14,-1000)" x2="0" y2="1000" stroke="#ddd" stroke-width="1" opacity="1"/><line transform="translate(15,-1000)" x2="0" y2="1000" stroke="#ddd" stroke-width="1" opacity="1"/><line transform="translate(15,-1000)" x2="0" y2="1000" stroke="#ddd" stroke-width="1" opacity="1"/><line transform="translate(16,-1000)" x2="0" y2="1000" stroke="#ddd" stroke-width="1" opacity="1"/><line transform="translate(17,-1000)" x2="0" y2="1000" stroke="#ddd" stroke-width="1" opacity="1"/><line transform="translate(18,-1000)" x2="0" y2="1000" stroke="#ddd" stroke-width="1" opacity="1"/><line transform="translate(19,-1000)" x2="0" y2="1000" stroke="#ddd" stroke-width="1" opacity="1"/><line transform="translate(20,-1000)" x2="0" y2="1000" stroke="#ddd" stroke-width="1" opacity="1"/><line transform="translate(21,-1000)" x2="0" y2="1000" stroke="#ddd" stroke-width="1" opacity="1"/><line transform="translate(22,-1000)" x2="0" y2="1000" stroke="#ddd" stroke-width="1" opacity="1"/><line transform="translate(23,-1000)" x2="0" y2="1000" stroke="#ddd" stroke-width="1" opacity="1"/><line transform="translate(25,-1000)" x2="0" y2="1000" stroke="#ddd" stroke-width="1" opacity="1"/><line transform="translate(26,-1000)" x2="0" y2="1000" stroke="#ddd" stroke-width="1" opacity="1"/><line transform="translate(27,-1000)" x2="0" y2="1000" stroke="#ddd" stroke-width="1" opacity="1"/><line transform="translate(28,-1000)" x2="0" y2="1000" stroke="#ddd" stroke-width="1" opacity="1"/><line transform="translate(29,-1000)" x2="0" y2="1000" stroke="#ddd" stroke-width="1" opacity="1"/><line transform="translate(31,-1000)" x2="0" y2="1000" stroke="#ddd" stroke-width="1" opacity="1"/><line transform="translate(32,-1000)" x2="0" y2="1000" stroke="#ddd" stroke-width="1" opacity="1"/><line transform="translate(33,-1000)" x2="0" y2="1000" stroke="#ddd" stroke-width="1" opacity="1"/><line transform="translate(34,-1000)" x2="0" y2="1000" stroke="#ddd" stroke-width="1" opacity="1"/><line transform="translate(35,-1000)" x2="0" y2="1000" stroke="#ddd" stroke-width="1" opacity="1"/><line transform="translate(37,-1000)" x2="0" y2="1000" stroke="#ddd" stroke-width="1" opacity="1"/><line transform="translate(38,-1000)" x2="0" y2="1000" stroke="#ddd" stroke-width="1" opacity="1"/><line transform="translate(39,-1000)" x2="0" y2="1000" stroke="#ddd" stroke-width="1" opacity="1"/><line transform="translate(41,-1000)" x2="0" y2="1000" stroke="#ddd" stroke-width="1" opacity="1"/><line transform="translate(43,-1000)" x2="0" y2="1000" stroke="#ddd" stroke-width="1" opacity="1"/><line transform="translate(44,-1000)" x2="0" y2="1000" stroke="#ddd" stroke-width="1" opacity="1"/><line transform="translate(46,-1000)" x2="0" y2="1000" stroke="#ddd" stroke-width="1" opacity="1"/><line transform="translate(48,-1000)" x2="0" y2="1000" stroke="#ddd" stroke-width="1" opacity="1"/><line transform="translate(50,-1000)" x2="0" y2="1000" stroke="#ddd" stroke-width="1" opacity="1"/><line transform="translate(53,-1000)" x2="0" y2="1000" stroke="#ddd" stroke-width="1" opacity="1"/><line transform="translate(55,-1000)" x2="0" y2="1000" stroke="#ddd" stroke-width="1" opacity="1"/><line transform="translate(58,-1000)" x2="0" y2="1000" stroke="#ddd" stroke-width="1" opacity="1"/><line transform="translate(61,-1000)" x2="0" y2="1000" stroke="#ddd" stroke-width="1" opacity="1"/><line transform="translate(64,-1000)" x2="0" y2="1000" stroke="#ddd" stroke-width="1" opacity="1"/><line transform="translate(68,-1000)" x2="0" y2="1000" stroke="#ddd" stroke-width="1" opacity="1"/><line transform="translate(72,-1000)" x2="0" y2="1000" stroke="#ddd" stroke-width="1" opacity="1"/><line transform="translate(77,-1000)" x2="0" y2="1000" stroke="#ddd" stroke-width="1" opacity="1"/><line transform="translate(82,-1000)" x2="0" y2="1000" stroke="#ddd" stroke-width="1" opacity="1"/><line transform="translate(88,-1000)" x2="0" y2="1000" stroke="#ddd" stroke-width="1" opacity="1"/><line transform="translate(95,-1000)" x2="0" y2="1000" stroke="#ddd" stroke-width="1" opacity="1"/><line transform="translate(103,-1000)" x2="0" y2="1000" stroke="#ddd" stroke-width="1" opacity="1"/><line transform="translate(113,-1000)" x2="0" y2="1000" stroke="#ddd" stroke-width="1" opacity="1"/><line transform="translate(124,-1000)" x2="0" y2="1000" stroke="#ddd" stroke-width="1" opacity="1"/><line transform="translate(138,-1000)" x2="0" y2="1000" stroke="#ddd" stroke-width="1" opacity="1"/><line transform="translate(154,-1000)" x2="0" y2="1000" stroke="#ddd" stroke-width="1" opacity="1"/><line transform="translate(176,-1000)" x2="0" y2="1000" stroke="#ddd" stroke-width="1" opacity="1"/><line transform="translate(204,-1000)" x2="0" y2="1000" stroke="#ddd" stroke-width="1" opacity="1"/><line transform="translate(241,-1000)" x2="0" y2="1000" stroke="#ddd" stroke-width="1" opacity="1"/><line transform="translate(291,-1000)" x2="0" y2="1000" stroke="#ddd" stroke-width="1" opacity="1"/><line transform="translate(359,-1000)" x2="0" y2="1000" stroke="#ddd" stroke-width="1" opacity="1"/><line transform="translate(446,-1000)" x2="0" y2="1000" stroke="#ddd" stroke-width="1" opacity="1"/><line transform="translate(547,-1000)" x2="0" y2="1000" stroke="#ddd" stroke-width="1" opacity="1"/><line transform="translate(644,-1000)" x2="0" y2="1000" stroke="#ddd" stroke-width="1" opacity="1"/><line transform="translate(719,-1000)" x2="0" y2="1000" stroke="#ddd" stroke-width="1" opacity="1"/><line transform="translate(779,-1000)" x2="0" y2="1000" stroke="#ddd" stroke-width="1" opacity="1"/><line transform="translate(837,-1000)" x2="0" y2="1000" stroke="#ddd" stroke-width="1" opacity="1"/><line transform="translate(888,-1000)" x2="0" y2="1000" stroke="#ddd" stroke-width="1" opacity="1"/><line transform="translate(924,-1000)" x2="0" y2="1000" stroke="#ddd" stroke-width="1" opacity="1"/><line transform="translate(946,-1000)" x2="0" y2="1000" stroke="#ddd" stroke-width="1" opacity="1"/><line transform="translate(957,-1000)" x2="0" y2="1000" stroke="#ddd" stroke-width="1" opacity="1"/><line transform="translate(963,-1000)" x2="0" y2="1000" stroke="#ddd" stroke-width="1" opacity="1"/><line transform="translate(966,-1000)" x2="0" y2="1000" stroke="#ddd" stroke-width="1" opacity="1"/><line transform="translate(967,-1000)" x2="0" y2="1000" stroke="#ddd" stroke-width="1" opacity="1"/><line transform="translate(968,-1000)" x2="0" y2="1000" stroke="#ddd" stroke-width="1" opacity="1"/><line transform="translate(968,-1000)" x2="0" y2="1000" stroke="#ddd" stroke-width="1" opacity="1"/></g></g><path class="foreground" aria-hidden="true" d="" pointer-events="none" display="none"/></g></g><g class="mark-group role-axis" aria-hidden="true"><g transform="translate(0.5,0.5)"><path class="background" aria-hidden="true" d="M0,0h0v0h0Z" pointer-events="none"/><g><g class="mark-rule role-axis-grid" pointer-events="none"><line transform="translate(0,1000)" x2="1000" y2="0" stroke="#ddd" stroke-width="1" opacity="1"/><line transform="translate(0,917)" x2="1000" y2="0" stroke="#ddd" stroke-width="1" opacity="1"/><line transform="translate(0,833)" x2="1000" y2="0" stroke="#ddd" stroke-width="1" opacity="1"/><line transform="translate(0,750)" x2="1000" y2="0" stroke="#ddd" stroke-width="1" opacity="1"/><line transform="translate(0,667)" x2="1000" y2="0" stroke="#ddd" stroke-width="1" opacity="1"/><line transform="translate(0,583)" x2="1000" y2="0" stroke="#ddd" stroke-width="1" opacity="1"/><line transform="translate(0,500)" x2="1000" y2="0" stroke="#ddd" stroke-width="1" opacity="1"/><line transform="translate(0,417)" x2="1000" y2="0" stroke="#ddd" stroke-width="1" opacity="1"/><line transform="translate(0,333)" x2="1000" y2="0" stroke="#ddd" stroke-width="1" opacity="1"/><line transform="translate(0,250)" x2="1000" y2="0" stroke="#ddd" stroke-width="1" opacity="1"/><line transform="translate(0,167)" x2="1000" y2="0" stroke="#ddd" stroke-width="1" opacity="1"/><line transform="translate(0,83)" x2="1000" y2="0" stroke="#ddd" stroke-width="1" opacity="1"/><line transform="translate(0,0)" x2="1000" y2="0" stroke="#ddd" stroke-width="1" opacity="1"/></g></g><path class="foreground" aria-hidden="true" d="" pointer-events="none" display="none"/></g></g><g class="mark-group role-axis" role="graphics-symbol" aria-roledescription="axis" aria-label="X-axis titled 'gm/Id in 1/V' for a linear scale with values from 0 to 30"><g transform="translate(0.5,1000.5)"><path class="background" aria-hidden="true" d="M0,0h0v0h0Z" pointer-events="none"/><g><g class="mark-rule role-axis-tick" pointer-events="none"><line transform="translate(13,0)" x2="0" y2="5" stroke="#888" stroke-width="1" opacity="1"/><line transform="translate(14,0)" x2="0" y2="5" stroke="#888" stroke-width="1" opacity="1"/><line transform="translate(15,0)" x2="0" y2="5" stroke="#888" stroke-width="1" opacity="1"/><line transform="translate(15,0)" x2="0" y2="5" stroke="#888" stroke-width="1" opacity="1"/><line transform="translate(16,0)" x2="0" y2="5" stroke="#888" stroke-width="1" opacity="1"/><line transform="translate(17,0)" x2="0" y2="5" stroke="#888" stroke-width="1" opacity="1"/><line transform="translate(18,0)" x2="0" y2="5" stroke="#888" stroke-width="1" opacity="1"/><line transform="translate(19,0)" x2="0" y2="5" stroke="#888" stroke-width="1" opacity="1"/><line transform="translate(20,0)" x2="0" y2="5" stroke="#888" stroke-width="1" opacity="1"/><line transform="translate(21,0)" x2="0" y2="5" stroke="#888" stroke-width="1" opacity="1"/><line transform="translate(22,0)" x2="0" y2="5" stroke="#888" stroke-width="1" opacity="1"/><line transform="translate(23,0)" x2="0" y2="5" stroke="#888" stroke-width="1" opacity="1"/><line transform="translate(25,0)" x2="0" y2="5" stroke="#888" stroke-width="1" opacity="1"/><line transform="translate(26,0)" x2="0" y2="5" stroke="#888" stroke-width="1" opacity="1"/><line transform="translate(27,0)" x2="0" y2="5" stroke="#888" stroke-width="1" opacity="1"/><line transform="translate(28,0)" x2="0" y2="5" stroke="#888" stroke-width="1" opacity="1"/><line transform="translate(29,0)" x2="0" y2="5" stroke="#888" stroke-width="1" opacity="1"/><line transform="translate(31,0)" x2="0" y2="5" stroke="#888" stroke-width="1" opacity="1"/><line transform="translate(32,0)" x2="0" y2="5" stroke="#888" stroke-width="1" opacity="1"/><line transform="translate(33,0)" x2="0" y2="5" stroke="#888" stroke-width="1" opacity="1"/><line transform="translate(34,0)" x2="0" y2="5" stroke="#888" stroke-width="1" opacity="1"/><line transform="translate(35,0)" x2="0" y2="5" stroke="#888" stroke-width="1" opacity="1"/><line transform="translate(37,0)" x2="0" y2="5" stroke="#888" stroke-width="1" opacity="1"/><line transform="translate(38,0)" x2="0" y2="5" stroke="#888" stroke-width="1" opacity="1"/><line transform="translate(39,0)" x2="0" y2="5" stroke="#888" stroke-width="1" opacity="1"/><line transform="translate(41,0)" x2="0" y2="5" stroke="#888" stroke-width="1" opacity="1"/><line transform="translate(43,0)" x2="0" y2="5" stroke="#888" stroke-width="1" opacity="1"/><line transform="translate(44,0)" x2="0" y2="5" stroke="#888" stroke-width="1" opacity="1"/><line transform="translate(46,0)" x2="0" y2="5" stroke="#888" stroke-width="1" opacity="1"/><line transform="translate(48,0)" x2="0" y2="5" stroke="#888" stroke-width="1" opacity="1"/><line transform="translate(50,0)" x2="0" y2="5" stroke="#888" stroke-width="1" opacity="1"/><line transform="translate(53,0)" x2="0" y2="5" stroke="#888" stroke-width="1" opacity="1"/><line transform="translate(55,0)" x2="0" y2="5" stroke="#888" stroke-width="1" opacity="1"/><line transform="translate(58,0)" x2="0" y2="5" stroke="#888" stroke-width="1" opacity="1"/><line transform="translate(61,0)" x2="0" y2="5" stroke="#888" stroke-width="1" opacity="1"/><line transform="translate(64,0)" x2="0" y2="5" stroke="#888" stroke-width="1" opacity="1"/><line transform="translate(68,0)" x2="0" y2="5" stroke="#888" stroke-width="1" opacity="1"/><line transform="translate(72,0)" x2="0" y2="5" stroke="#888" stroke-width="1" opacity="1"/><line transform="translate(77,0)" x2="0" y2="5" stroke="#888" stroke-width="1" opacity="1"/><line transform="translate(82,0)" x2="0" y2="5" stroke="#888" stroke-width="1" opacity="1"/><line transform="translate(88,0)" x2="0" y2="5" stroke="#888" stroke-width="1" opacity="1"/><line transform="translate(95,0)" x2="0" y2="5" stroke="#888" stroke-width="1" opacity="1"/><line transform="translate(103,0)" x2="0" y2="5" stroke="#888" stroke-width="1" opacity="1"/><line transform="translate(113,0)" x2="0" y2="5" stroke="#888" stroke-width="1" opacity="1"/><line transform="translate(124,0)" x2="0" y2="5" stroke="#888" stroke-width="1" opacity="1"/><line transform="translate(138,0)" x2="0" y2="5" stroke="#888" stroke-width="1" opacity="1"/><line transform="translate(154,0)" x2="0" y2="5" stroke="#888" stroke-width="1" opacity="1"/><line transform="translate(176,0)" x2="0" y2="5" stroke="#888" stroke-width="1" opacity="1"/><line transform="translate(204,0)" x2="0" y2="5" stroke="#888" stroke-width="1" opacity="1"/><line transform="translate(241,0)" x2="0" y2="5" stroke="#888" stroke-width="1" opacity="1"/><line transform="translate(291,0)" x2="0" y2="5" stroke="#888" stroke-width="1" opacity="1"/><line transform="translate(359,0)" x2="0" y2="5" stroke="#888" stroke-width="1" opacity="1"/><line transform="translate(446,0)" x2="0" y2="5" stroke="#888" stroke-width="1" opacity="1"/><line transform="translate(547,0)" x2="0" y2="5" stroke="#888" stroke-width="1" opacity="1"/><line transform="translate(644,0)" x2="0" y2="5" stroke="#888" stroke-width="1" opacity="1"/><line transform="translate(719,0)" x2="0" y2="5" stroke="#888" stroke-width="1" opacity="1"/><line transform="translate(779,0)" x2="0" y2="5" stroke="#888" stroke-width="1" opacity="1"/><line transform="translate(837,0)" x2="0" y2="5" stroke="#888" stroke-width="1" opacity="1"/><line transform="translate(888,0)" x2="0" y2="5" stroke="#888" stroke-width="1" opacity="1"/><line transform="translate(924,0)" x2="0" y2="5" stroke="#888" stroke-width="1" opacity="1"/><line transform="translate(946,0)" x2="0" y2="5" stroke="#888" stroke-width="1" opacity="1"/><line transform="translate(957,0)" x2="0" y2="5" stroke="#888" stroke-width="1" opacity="1"/><line transform="translate(963,0)" x2="0" y2="5" stroke="#888" stroke-width="1" opacity="1"/><line transform="translate(966,0)" x2="0" y2="5" stroke="#888" stroke-width="1" opacity="1"/><line transform="translate(967,0)" x2="0" y2="5" stroke="#888" stroke-width="1" opacity="1"/><line transform="translate(968,0)" x2="0" y2="5" stroke="#888" stroke-width="1" opacity="1"/><line transform="translate(968,0)" x2="0" y2="5" stroke="#888" stroke-width="1" opacity="1"/></g><g class="mark-text role-axis-label" pointer-events="none"><text text-anchor="middle" transform="translate(13.46319823435672,15)" font-family="sans-serif" font-size="10px" fill="#000" opacity="1">0.4</text><text text-anchor="middle" transform="translate(14.084668059382839,15)" font-family="sans-serif" font-size="10px" fill="#000" opacity="0">0.4</text><text text-anchor="middle" transform="translate(14.74656696603281,15)" font-family="sans-serif" font-size="10px" fill="#000" opacity="0">0.4</text><text text-anchor="middle" transform="translate(15.45279109934858,15)" font-family="sans-serif" font-size="10px" fill="#000" opacity="0">0.5</text><text text-anchor="middle" transform="translate(16.207696838924676,15)" font-family="sans-serif" font-size="10px" fill="#000" opacity="0">0.5</text><text text-anchor="middle" transform="translate(17.016112163100406,15)" font-family="sans-serif" font-size="10px" fill="#000" opacity="0">0.5</text><text text-anchor="middle" transform="translate(17.88328086020513,15)" font-family="sans-serif" font-size="10px" fill="#000" opacity="0">0.5</text><text text-anchor="middle" transform="translate(18.81465407429779,15)" font-family="sans-serif" font-size="10px" fill="#000" opacity="0">0.6</text><text text-anchor="middle" transform="translate(19.815360927795616,15)" font-family="sans-serif" font-size="10px" fill="#000" opacity="0">0.6</text><text text-anchor="middle" transform="translate(20.889062926671432,15)" font-family="sans-serif" font-size="10px" fill="#000" opacity="0">0.6</text><text text-anchor="middle" transform="translate(22.035793764155002,15)" font-family="sans-serif" font-size="10px" fill="#000" opacity="0">0.7</text><text text-anchor="middle" transform="translate(23.248615128311773,15)" font-family="sans-serif" font-size="10px" fill="#000" opacity="0">0.7</text><text text-anchor="middle" transform="translate(24.510137599250495,15)" font-family="sans-serif" font-size="10px" fill="#000" opacity="0">0.7</text><text text-anchor="middle" transform="translate(25.792294106905143,15)" font-family="sans-serif" font-size="10px" fill="#000" opacity="0">0.8</text><text text-anchor="middle" transform="translate(27.063314860700437,15)" font-family="sans-serif" font-size="10px" fill="#000" opacity="0">0.8</text><text text-anchor="middle" transform="translate(28.300082204750783,15)" font-family="sans-serif" font-size="10px" fill="#000" opacity="0">0.8</text><text text-anchor="middle" transform="translate(29.496619956121926,15)" font-family="sans-serif" font-size="10px" fill="#000" opacity="1">0.9</text><text text-anchor="middle" transform="translate(30.662633199796975,15)" font-family="sans-serif" font-size="10px" fill="#000" opacity="0">0.9</text><text text-anchor="middle" transform="translate(31.816071003954818,15)" font-family="sans-serif" font-size="10px" fill="#000" opacity="0">1.0</text><text text-anchor="middle" transform="translate(32.97647656440719,15)" font-family="sans-serif" font-size="10px" fill="#000" opacity="0">1.0</text><text text-anchor="middle" transform="translate(34.1616872648197,15)" font-family="sans-serif" font-size="10px" fill="#000" opacity="0">1.0</text><text text-anchor="middle" transform="translate(35.387079151278385,15)" font-family="sans-serif" font-size="10px" fill="#000" opacity="0">1.1</text><text text-anchor="middle" transform="translate(36.66597668790508,15)" font-family="sans-serif" font-size="10px" fill="#000" opacity="0">1.1</text><text text-anchor="middle" transform="translate(38.010383611382494,15)" font-family="sans-serif" font-size="10px" fill="#000" opacity="0">1.1</text><text text-anchor="middle" transform="translate(39.43169263944869,15)" font-family="sans-serif" font-size="10px" fill="#000" opacity="0">1.2</text><text text-anchor="middle" transform="translate(40.94128827356184,15)" font-family="sans-serif" font-size="10px" fill="#000" opacity="0">1.2</text><text text-anchor="middle" transform="translate(42.55105371132379,15)" font-family="sans-serif" font-size="10px" fill="#000" opacity="0">1.3</text><text text-anchor="middle" transform="translate(44.27381912749557,15)" font-family="sans-serif" font-size="10px" fill="#000" opacity="0">1.3</text><text text-anchor="middle" transform="translate(46.123790717426246,15)" font-family="sans-serif" font-size="10px" fill="#000" opacity="0">1.4</text><text text-anchor="middle" transform="translate(48.11699677117753,15)" font-family="sans-serif" font-size="10px" fill="#000" opacity="0">1.4</text><text text-anchor="middle" transform="translate(50.2717851905671,15)" font-family="sans-serif" font-size="10px" fill="#000" opacity="0">1.5</text><text text-anchor="middle" transform="translate(52.60940831227147,15)" font-family="sans-serif" font-size="10px" fill="#000" opacity="0">1.6</text><text text-anchor="middle" transform="translate(55.154736480649035,15)" font-family="sans-serif" font-size="10px" fill="#000" opacity="1">1.7</text><text text-anchor="middle" transform="translate(57.937152430258784,15)" font-family="sans-serif" font-size="10px" fill="#000" opacity="0">1.7</text><text text-anchor="middle" transform="translate(60.991695794481274,15)" font-family="sans-serif" font-size="10px" fill="#000" opacity="0">1.8</text><text text-anchor="middle" transform="translate(64.36055380126915,15)" font-family="sans-serif" font-size="10px" fill="#000" opacity="0">1.9</text><text text-anchor="middle" transform="translate(68.09503520689451,15)" font-family="sans-serif" font-size="10px" fill="#000" opacity="0">2.0</text><text text-anchor="middle" transform="translate(72.25822794564449,15)" font-family="sans-serif" font-size="10px" fill="#000" opacity="0">2.2</text><text text-anchor="middle" transform="translate(76.92864031500474,15)" font-family="sans-serif" font-size="10px" fill="#000" opacity="0">2.3</text><text text-anchor="middle" transform="translate(82.20528406102265,15)" font-family="sans-serif" font-size="10px" fill="#000" opacity="0">2.5</text><text text-anchor="middle" transform="translate(88.21491511273555,15)" font-family="sans-serif" font-size="10px" fill="#000" opacity="0">2.6</text><text text-anchor="middle" transform="translate(95.12257231398881,15)" font-family="sans-serif" font-size="10px" fill="#000" opacity="0">2.9</text><text text-anchor="middle" transform="translate(103.14726326580625,15)" font-family="sans-serif" font-size="10px" fill="#000" opacity="0">3.1</text><text text-anchor="middle" transform="translate(112.5858348701238,15)" font-family="sans-serif" font-size="10px" fill="#000" opacity="0">3.4</text><text text-anchor="middle" transform="translate(123.85004232200986,15)" font-family="sans-serif" font-size="10px" fill="#000" opacity="0">3.7</text><text text-anchor="middle" transform="translate(137.5250084632907,15)" font-family="sans-serif" font-size="10px" fill="#000" opacity="0">4.1</text><text text-anchor="middle" transform="translate(154.46193586290408,15)" font-family="sans-serif" font-size="10px" fill="#000" opacity="0">4.6</text><text text-anchor="middle" transform="translate(175.92314384155532,15)" font-family="sans-serif" font-size="10px" fill="#000" opacity="0">5.3</text><text text-anchor="middle" transform="translate(203.79688539298732,15)" font-family="sans-serif" font-size="10px" fill="#000" opacity="1">6.1</text><text text-anchor="middle" transform="translate(240.86781246619503,15)" font-family="sans-serif" font-size="10px" fill="#000" opacity="0">7.2</text><text text-anchor="middle" transform="translate(290.98767691169667,15)" font-family="sans-serif" font-size="10px" fill="#000" opacity="0">8.7</text><text text-anchor="middle" transform="translate(358.5593254463219,15)" font-family="sans-serif" font-size="10px" fill="#000" opacity="0">10.8</text><text text-anchor="middle" transform="translate(445.9129807587445,15)" font-family="sans-serif" font-size="10px" fill="#000" opacity="0">13.4</text><text text-anchor="middle" transform="translate(547.2610788606878,15)" font-family="sans-serif" font-size="10px" fill="#000" opacity="0">16.4</text><text text-anchor="middle" transform="translate(644.2498411466337,15)" font-family="sans-serif" font-size="10px" fill="#000" opacity="0">19.3</text><text text-anchor="middle" transform="translate(719.1738915235799,15)" font-family="sans-serif" font-size="10px" fill="#000" opacity="0">21.6</text><text text-anchor="middle" transform="translate(778.5467918034915,15)" font-family="sans-serif" font-size="10px" fill="#000" opacity="0">23.4</text><text text-anchor="middle" transform="translate(836.5539366610186,15)" font-family="sans-serif" font-size="10px" fill="#000" opacity="0">25.1</text><text text-anchor="middle" transform="translate(887.9831086498266,15)" font-family="sans-serif" font-size="10px" fill="#000" opacity="0">26.6</text><text text-anchor="middle" transform="translate(924.133815390073,15)" font-family="sans-serif" font-size="10px" fill="#000" opacity="0">27.7</text><text text-anchor="middle" transform="translate(945.5207352019047,15)" font-family="sans-serif" font-size="10px" fill="#000" opacity="0">28.4</text><text text-anchor="middle" transform="translate(956.9813794652267,15)" font-family="sans-serif" font-size="10px" fill="#000" opacity="0">28.7</text><text text-anchor="middle" transform="translate(962.8133837114174,15)" font-family="sans-serif" font-size="10px" fill="#000" opacity="0">28.9</text><text text-anchor="middle" transform="translate(965.7051573837414,15)" font-family="sans-serif" font-size="10px" fill="#000" opacity="0">29.0</text><text text-anchor="middle" transform="translate(967.1208454135505,15)" font-family="sans-serif" font-size="10px" fill="#000" opacity="1">29.0</text><text text-anchor="middle" transform="translate(967.8096040751994,15)" font-family="sans-serif" font-size="10px" fill="#000" opacity="0">29.0</text><text text-anchor="middle" transform="translate(968.1436864258205,15)" font-family="sans-serif" font-size="10px" fill="#000" opacity="0">29.0</text></g><g class="mark-rule role-axis-domain" pointer-events="none"><line transform="translate(0,0)" x2="1000" y2="0" stroke="#888" stroke-width="1" opacity="1"/></g><g class="mark-text role-axis-title" pointer-events="none"><text text-anchor="middle" transform="translate(500,30)" font-family="sans-serif" font-size="11px" font-weight="bold" fill="#000" opacity="1">gm/Id in 1/V</text></g></g><path class="foreground" aria-hidden="true" d="" pointer-events="none" display="none"/></g></g><g class="mark-group role-axis" role="graphics-symbol" aria-roledescription="axis" aria-label="Y-axis titled 'Id/W in A/m' for a log scale with values from 1e-9 to 1,000"><g transform="translate(0.5,0.5)"><path class="background" aria-hidden="true" d="M0,0h0v0h0Z" pointer-events="none"/><g><g class="mark-rule role-axis-tick" pointer-events="none"><line transform="translate(0,1000)" x2="-5" y2="0" stroke="#888" stroke-width="1" opacity="1"/><line transform="translate(0,917)" x2="-5" y2="0" stroke="#888" stroke-width="1" opacity="1"/><line transform="translate(0,833)" x2="-5" y2="0" stroke="#888" stroke-width="1" opacity="1"/><line transform="translate(0,750)" x2="-5" y2="0" stroke="#888" stroke-width="1" opacity="1"/><line transform="translate(0,667)" x2="-5" y2="0" stroke="#888" stroke-width="1" opacity="1"/><line transform="translate(0,583)" x2="-5" y2="0" stroke="#888" stroke-width="1" opacity="1"/><line transform="translate(0,500)" x2="-5" y2="0" stroke="#888" stroke-width="1" opacity="1"/><line transform="translate(0,417)" x2="-5" y2="0" stroke="#888" stroke-width="1" opacity="1"/><line transform="translate(0,333)" x2="-5" y2="0" stroke="#888" stroke-width="1" opacity="1"/><line transform="translate(0,250)" x2="-5" y2="0" stroke="#888" stroke-width="1" opacity="1"/><line transform="translate(0,167)" x2="-5" y2="0" stroke="#888" stroke-width="1" opacity="1"/><line transform="translate(0,83)" x2="-5" y2="0" stroke="#888" stroke-width="1" opacity="1"/><line transform="translate(0,0)" x2="-5" y2="0" stroke="#888" stroke-width="1" opacity="1"/></g><g class="mark-text role-axis-label" pointer-events="none"><text text-anchor="end" transform="translate(-7,1003)" font-family="sans-serif" font-size="10px" fill="#000" opacity="1">1e-9</text><text text-anchor="end" transform="translate(-7,919.6666666666667)" font-family="sans-serif" font-size="10px" fill="#000" opacity="1">1e-8</text><text text-anchor="end" transform="translate(-7,836.3333333333334)" font-family="sans-serif" font-size="10px" fill="#000" opacity="1">1e-7</text><text text-anchor="end" transform="translate(-7,753)" font-family="sans-serif" font-size="10px" fill="#000" opacity="1">0.000001</text><text text-anchor="end" transform="translate(-7,669.6666666666667)" font-family="sans-serif" font-size="10px" fill="#000" opacity="1">0.00001</text><text text-anchor="end" transform="translate(-7,586.3333333333333)" font-family="sans-serif" font-size="10px" fill="#000" opacity="1">0.0001</text><text text-anchor="end" transform="translate(-7,503)" font-family="sans-serif" font-size="10px" fill="#000" opacity="1">0.001</text><text text-anchor="end" transform="translate(-7,419.66666666666663)" font-family="sans-serif" font-size="10px" fill="#000" opacity="1">0.01</text><text text-anchor="end" transform="translate(-7,336.33333333333337)" font-family="sans-serif" font-size="10px" fill="#000" opacity="1">0.1</text><text text-anchor="end" transform="translate(-7,253)" font-family="sans-serif" font-size="10px" fill="#000" opacity="1">1</text><text text-anchor="end" transform="translate(-7,169.66666666666663)" font-family="sans-serif" font-size="10px" fill="#000" opacity="1">10</text><text text-anchor="end" transform="translate(-7,86.33333333333326)" font-family="sans-serif" font-size="10px" fill="#000" opacity="1">100</text><text text-anchor="end" transform="translate(-7,3)" font-family="sans-serif" font-size="10px" fill="#000" opacity="1">1,000</text></g><g class="mark-rule role-axis-domain" pointer-events="none"><line transform="translate(0,1000)" x2="0" y2="-1000" stroke="#888" stroke-width="1" opacity="1"/></g><g class="mark-text role-axis-title" pointer-events="none"><text text-anchor="middle" transform="translate(-58.75,500) rotate(-90) translate(0,-2)" font-family="sans-serif" font-size="11px" font-weight="bold" fill="#000" opacity="1">Id/W in A/m</text></g></g><path class="foreground" aria-hidden="true" d="" pointer-events="none" display="none"/></g></g><g class="mark-group role-scope pathgroup" role="graphics-object" aria-roledescription="group mark container"><g transform="translate(0,0)"><path class="background" aria-hidden="true" d="M0,0h1000v1000h-1000Z"/><g><g class="mark-line role-mark marks" role="graphics-object" aria-roledescription="line mark container"><path aria-label="Lines: Truth; gm/Id in 1/V: 0.403895947031; Id/W in A/m: 116.490899587" role="graphics-symbol" aria-roledescription="line mark" d="M13.46319823435672,77.80900007772051L14.084668059382839,78.55646542796913L14.74656696603281,79.33874667444229L15.45279109934858,80.15814227340667L16.207696838924676,81.01717455182533L17.016112163100406,81.91861519259702L17.88328086020513,82.86550978249917L18.81465407429779,83.86119573790363L19.815360927795616,84.90930124910001L20.889062926671432,86.01370046632061L22.035793764155002,87.17838081072082L23.248615128311773,88.40716008689952L24.510137599250495,89.70320877284288L25.792294106905143,91.0684510305183L27.063314860700437,92.50313748245209L28.300082204750783,94.00597173957593L29.496619956121926,95.57484954507822L30.662633199796975,97.20779313377925L31.816071003954818,98.90361108062929L32.97647656440719,100.6621524434419L34.1616872648197,102.48428919936903L35.387079151278385,104.37179503131544L36.66597668790508,106.327219910627L38.010383611382494,108.35379810666801L39.43169263944869,110.4553961044057L40.94128827356184,112.63649624873129L42.55105371132379,114.90221038333004L44.27381912749557,117.25831924484287L46.123790717426246,119.71133550600854L48.11699677117753,122.26859041944027L50.2717851905671,124.9383459208171L52.60940831227147,127.72993594125748L55.154736480649035,130.6539427570299L57.937152430258784,133.7224167172979L60.991695794481274,136.94915095029668L64.36055380126915,140.35002708562294L68.09503520689451,143.94345427759504L72.25822794564449,147.75093285183615L76.92864031500474,151.7977872702101L82.20528406102265,156.11413335017187L88.21491511273555,160.73617597216017L95.12257231398881,165.70798291928878L103.14726326580625,171.08395998935723L112.5858348701238,176.93238239806553L123.85004232200986,183.34055159017137L137.5250084632907,190.42249860856765L154.46193586290408,198.33072013006293L175.92314384155532,207.2742772788959L203.79688539298732,217.54660985247887L240.86781246619503,229.56676081509264L290.98767691169667,243.93391304559796L358.5593254463219,261.4768416228721L445.9129807587445,283.22650618893584L547.2610788606878,310.1531848091635L644.2498411466337,342.56697651387236L719.1738915235799,379.68341292475793L778.5467918034915,420.3626074277084L836.5539366610186,464.2055139233787L887.9831086498266,511.07185056671244L924.133815390073,560.3334935533809L945.5207352019047,611.1387262084005L956.9813794652267,662.8123325789859L962.8133837114174,714.9375598841306L965.7051573837414,767.2819707494671L967.1208454135505,819.7015916815526L967.8096040751994,872.0183746204941L968.1436864258205,923.7004370611598" stroke="#f58518" stroke-width="2"/></g></g><path class="foreground" aria-hidden="true" d="" display="none"/></g><g transform="translate(0,0)"><path class="background" aria-hidden="true" d="M0,0h1000v1000h-1000Z"/><g><g class="mark-line role-mark marks" role="graphics-object" aria-roledescription="line mark container"><path aria-label="Lines: Prediction; gm/Id in 1/V: 0.403895947031; Id/W in A/m: 114.191775738" role="graphics-symbol" aria-roledescription="line mark" d="M13.46319823435672,78.5304311250089L14.084668059382839,79.17895145982645L14.74656696603281,80.08855170074457L15.45279109934858,80.85886158139732L16.207696838924676,81.29267221453861L17.016112163100406,81.64537916220849L17.88328086020513,81.26828732138891L18.81465407429779,81.24958686443252L19.815360927795616,80.40519827294467L20.889062926671432,79.65674473880335L22.035793764155002,82.20051052781297L23.248615128311773,83.86762496048938L24.510137599250495,84.84020905306878L25.792294106905143,86.95176014180595L27.063314860700437,88.90814641639034L28.300082204750783,91.23128745503806L29.496619956121926,93.35705903463153L30.662633199796975,95.45709659546087L31.816071003954818,96.69774654393137L32.97647656440719,98.23915851919685L34.1616872648197,100.01411372223812L35.387079151278385,101.70710104218095L36.66597668790508,103.48483139882225L38.010383611382494,105.36446382199117L39.43169263944869,107.31439314677571L40.94128827356184,109.2838400923014L42.55105371132379,111.30636050808906L44.27381912749557,113.43511966471232L46.123790717426246,115.46829766893264L48.11699677117753,117.49152072079838L50.2717851905671,119.61468219540983L52.60940831227147,122.4362949454485L55.154736480649035,124.87538892401517L57.937152430258784,127.65632014424288L60.991695794481274,130.6686598036252L64.36055380126915,133.97713572729685L68.09503520689451,138.81825954252324L72.25822794564449,142.23907618061736L76.92864031500474,148.01715570194563L82.20528406102265,152.9181442982338L88.21491511273555,157.78036844820997L95.12257231398881,163.50464244079188L103.14726326580625,167.9407169829753L112.5858348701238,171.85960775926756L123.85004232200986,176.92946998627568L137.5250084632907,182.23785104119315L154.46193586290408,189.17363717097356L175.92314384155532,195.91893042032183L203.79688539298732,206.17114764289602L240.86781246619503,217.95913697776993L290.98767691169667,231.47625336385158L358.5593254463219,249.21915027843932L445.9129807587445,270.8124740322786L547.2610788606878,296.36156697629366L644.2498411466337,325.45700111157873L719.1738915235799,370.8609360802491L778.5467918034915,410.27336711940296L836.5539366610186,450.32888711176753L887.9831086498266,498.4287435167498L924.133815390073,557.2573634571336L945.5207352019047,603.5532059834962L956.9813794652267,667.4554445981898L962.8133837114174,729.0045668976549L965.7051573837414,770.5237291840652L967.1208454135505,824.3606995836344L967.8096040751994,862.7504772557837L968.1436864258205,911.4566407182996" stroke="#4c78a8" stroke-width="2"/></g></g><path class="foreground" aria-hidden="true" d="" display="none"/></g></g><g class="mark-group role-legend" role="graphics-symbol" aria-roledescription="legend" aria-label="Symbol legend titled 'Lines' for stroke color with 2 values: Prediction, Truth"><g transform="translate(1018,0)"><path class="background" aria-hidden="true" d="M0,0h66v40h-66Z" pointer-events="none"/><g><g class="mark-group role-legend-entry"><g transform="translate(0,16)"><path class="background" aria-hidden="true" d="M0,0h0v0h0Z" pointer-events="none"/><g><g class="mark-group role-scope" role="graphics-object" aria-roledescription="group mark container"><g transform="translate(0,0)"><path class="background" aria-hidden="true" d="M0,0h65.66666793823242v11h-65.66666793823242Z" pointer-events="none" opacity="1"/><g><g class="mark-symbol role-legend-symbol" pointer-events="none"><path transform="translate(6,6)" d="M-5,0L5,0" stroke="#4c78a8" stroke-width="1.5" opacity="1"/></g><g class="mark-text role-legend-label" pointer-events="none"><text text-anchor="start" transform="translate(16,9)" font-family="sans-serif" font-size="10px" fill="#000" opacity="1">Prediction</text></g></g><path class="foreground" aria-hidden="true" d="" pointer-events="none" display="none"/></g><g transform="translate(0,13)"><path class="background" aria-hidden="true" d="M0,0h65.66666793823242v11h-65.66666793823242Z" pointer-events="none" opacity="1"/><g><g class="mark-symbol role-legend-symbol" pointer-events="none"><path transform="translate(6,6)" d="M-5,0L5,0" stroke="#f58518" stroke-width="1.5" opacity="1"/></g><g class="mark-text role-legend-label" pointer-events="none"><text text-anchor="start" transform="translate(16,9)" font-family="sans-serif" font-size="10px" fill="#000" opacity="1">Truth</text></g></g><path class="foreground" aria-hidden="true" d="" pointer-events="none" display="none"/></g></g></g><path class="foreground" aria-hidden="true" d="" pointer-events="none" display="none"/></g></g><g class="mark-text role-legend-title" pointer-events="none"><text text-anchor="start" transform="translate(0,9)" font-family="sans-serif" font-size="11px" font-weight="bold" fill="#000" opacity="1">Lines</text></g></g><path class="foreground" aria-hidden="true" d="" pointer-events="none" display="none"/></g></g></g><path class="foreground" aria-hidden="true" d="" display="none"/></g></g></g></svg>